# xmcd
#
# Track frame offsets:
#	150
#	13800
#	27517
#	43957
#	56532
#	73975
#	87263
#	105118
#	118828
#	141586
#	157655
#	173204
#	196092
#	210353
#
# Disc length: 3001 seconds
#
# Revision: 1
# Processed by: cddbd v1.5.2PL0 Copyright (c) Steve Scherf et al.
# Submitted via: audiograbber 1.80
#
DISCID=c00bb70e
DTITLE=Dinu Radu ,Panflöte - Weihnachtszauber der Panflöte - Ave Maria
DYEAR=1900
DGENRE=
TTITLE0=Amazing Grace
TTITLE1=Feelings
TTITLE2=Scarborough Fair
TTITLE3=Adagio
TTITLE4=Barcarole
TTITLE5=Serenade
TTITLE6=Largo
TTITLE7=Andante
TTITLE8=Ave Maria
TTITLE9=Nocturne
TTITLE10=Ständchen
TTITLE11=Air
TTITLE12=Träumerei
TTITLE13=Wiegenlied
EXTD=
EXTT0=
EXTT1=
EXTT2=
EXTT3=
EXTT4=
EXTT5=
EXTT6=
EXTT7=
EXTT8=
EXTT9=
EXTT10=
EXTT11=
EXTT12=
EXTT13=
PLAYORDER=
